/* XPM */
static char *zoomall_xpm[] = {
/* width height num_colors chars_per_pixel */
"    24    24        8            1",
/* colors */
"` c None",
". c #000000",
"# c #ffffff",
"a c #848284",
"b c #840000",
"c c #000000",
"d c #000000",
"e c #000000",
/* pixels */
"````````````````````````",
"````````````````````````",
"````````````````````````",
"````````````````````````",
"````````````````````````",
"`````````.....``````````",
"```````..#####..````````",
"``````.a#bbbb###.```````",
"``````.##b##bb##.```````",
"`````.###b##b#b##.``````",
"`````.###b##bbb##.``````",
"`````.###b####b##.``````",
"`````.###b####b##.``````",
"`````.###b####b##.``````",
"``````.##bbbbbb#.```````",
"``````.a#######a.```````",
"```````..#####...a``````",
"`````````.....``a..`````",
"`````````````````...````",
"``````````````````..````",
"````````````````````````",
"````````````````````````",
"````````````````````````",
"````````````````````````"
};
